<svg xmlns="http://www.w3.org/2000/svg" viewBox="0 0 374.66666 185.33333" height="185.333" width="374.667"><defs><clipPath id="a"><path d="M890.82 956.078c-12.191-12.379-18.32-27.379-18.32-45 0-17.648 6.129-32.887 18.32-45.656 12.231-12.813 27.071-19.223 44.571-19.223 17.461 0 32.308 6.41 44.531 19.223 3.789 3.988 7.027 8.199 9.648 12.656-.351 22.383-.66 44.844-.98 67.223-2.418 3.789-5.352 7.39-8.668 10.777-12.223 12.352-27.07 18.524-44.531 18.524-17.5 0-32.34-6.172-44.571-18.524m2.66-240.887c-6.96-7.929-11.332-17.66-13.089-29.113-1.719-11.519-2.582-27.379-2.582-47.648V104.828c.043-1.09.043-2.066.043-3.156.16-8.242.589-16.602 1.25-25.121.859-11.051 3.046-21.211 6.558-30.473 3.481-9.25 9.141-16.75 17-22.5 7.852-5.7 18.75-8.59 32.731-8.59 10.468 0 20.699 3.09 30.738 9.262 10.043 6.21 17.23 15.43 21.601 27.809 1.719 4.422 3.051 10.351 3.911 17.851.859 7.5 1.328 20.55 1.328 39.07v529.45c0 3.48-.039 7.031-.078 10.699l-.082 6.211c-.11 6.488-.309 13.211-.508 20.121-.461 13.238-2.852 23.398-7.223 30.469-4.34 7.031-9.808 13.199-16.328 18.511-6.559 5.321-17.23 7.969-32.07 7.969-17.461 0-31.84-5.781-43.2-17.219"/></clipPath><clipPath id="b"><path d="M870 13.781h130v970H870z"/></clipPath><clipPath id="c"><path d="M890.82 956.078c-12.191-12.379-18.32-27.379-18.32-45 0-17.648 6.129-32.887 18.32-45.656 12.231-12.813 27.071-19.223 44.571-19.223 17.461 0 32.308 6.41 44.531 19.223 12.187 12.769 18.316 28.008 18.316 45.656v1.801c-.429 16.883-6.519 31.25-18.316 43.199-12.223 12.352-27.07 18.524-44.531 18.524-17.5 0-32.34-6.172-44.571-18.524m2.66-240.887c-6.96-7.929-11.332-17.66-13.089-29.113-1.719-11.519-2.582-27.379-2.582-47.648v-91.801c2.421-166.289 4.812-332.617 7.23-498.899.231-.55.43-1.101.621-1.652 3.481-9.25 9.141-16.75 17-22.5 7.852-5.7 18.75-8.59 32.731-8.59 10.468 0 20.699 3.09 30.738 9.262 10.043 6.21 17.23 15.43 21.601 27.809 1.719 4.421 3.051 10.351 3.911 17.851.859 7.5 1.328 20.55 1.328 39.07v529.45c0 11.441-.239 23.832-.668 37.031-.461 13.238-2.852 23.398-7.223 30.469-4.34 7.031-9.808 13.199-16.328 18.511-6.559 5.321-17.23 7.969-32.07 7.969-17.461 0-31.84-5.781-43.2-17.219"/></clipPath><clipPath id="d"><path d="M870 13.781h130v970H870z"/></clipPath><clipPath id="e"><path d="M0 3.781h2810v1380H0z"/></clipPath><clipPath id="f"><path d="M1308.75 126.871c6.91-8.133 15.27-17.391 25-27.82 12.81-13.711 28.91-26.723 48.32-39.063 19.41-12.34 42.58-22.969 69.49-31.758 26.92-8.789 58.44-13.242 94.65-13.242 61.76 0 112.5 12.813 152.23 38.403 14.45 9.34 27.81 19.449 40.08 30.347-2.9 196.953-5.75 394.024-8.6 590.981-10.62 8.32-22.03 16.09-34.14 23.242-38.83 22.969-87.81 34.449-146.95 34.449-37.93 0-71.25-5.308-99.92-15.898-28.68-10.582-53.17-22.961-73.44-37.071-20.31-14.14-36.21-27.57-47.66-40.351-11.48-12.809-18.55-21.399-21.17-25.82v284.57c0 11.449-.23 22.93-.66 34.422-.47 11.437-2.46 21.828-5.98 31.09-.98 2.66-2.19 5.117-3.52 7.457 4.07-281.289 8.17-562.649 12.27-843.938m137.5-8.641c-26.02 8.829-49.41 23.598-70.12 44.34-20.74 20.739-37.73 47.66-50.97 80.739-13.25 33.089-19.85 74.339-19.85 123.75 0 58.242 8.36 105.242 25.16 140.98 16.76 35.742 36.83 63.551 60.23 83.402 23.36 19.84 47.62 33.278 72.78 40.348 25.15 7.07 46.52 10.582 64.18 10.582 31.79 0 60.43-6.601 86.05-19.84 25.59-13.242 47.42-31.761 65.51-55.59 18.08-23.82 31.76-51.832 41.05-84.062 9.26-32.219 13.87-66.828 13.87-103.899 0-51.179-6.84-94.179-20.51-129.07-13.67-34.84-30.66-63.082-50.93-84.68-20.32-21.652-43.01-37.07-68.17-46.332-25.15-9.257-48.79-13.91-70.82-13.91-25.62 0-51.44 4.422-77.46 13.242"/></clipPath><clipPath id="g"><path d="M1290 13.781h450v960h-450z"/></clipPath><clipPath id="h"><path d="M1215.98 985.852c-7.5-5.743-13.25-13.243-17.23-22.5-3.95-9.262-6.17-19.653-6.6-31.09-.47-11.492-.67-22.5-.67-33.09V106.32c0-19.41.67-35.082 2-46.992 1.32-11.918 5.93-21.406 13.9-28.437 10.59-10.59 23.83-15.903 39.69-15.903 14.1 0 24.92 3.09 32.42 9.262 7.5 6.21 13.01 13.672 16.56 22.5 3.52 8.828 5.51 17.422 5.94 25.82.43 8.399.67 15.23.67 20.508v41.051c7.93-9.719 18.32-21.399 31.09-35.078 12.81-13.711 28.91-26.723 48.32-39.063 19.41-12.34 42.58-22.968 69.49-31.757 26.92-8.79 58.44-13.243 94.65-13.243 61.76 0 112.5 12.813 152.23 38.403 39.68 25.59 71.01 57.109 93.94 94.648 22.97 37.5 38.6 77.191 47 119.102 8.39 41.91 12.57 79.609 12.57 113.16 0 36.179-4.61 75-13.9 116.488-9.26 41.441-25.59 79.609-48.99 114.492-23.36 34.84-54.45 63.75-93.28 86.68-38.83 22.969-87.81 34.449-146.95 34.449-37.93 0-71.25-5.308-99.92-15.898-28.68-10.582-53.17-22.961-73.44-37.071-20.31-14.14-36.21-27.57-47.66-40.351-11.48-12.809-18.55-21.399-21.17-25.82v284.57c0 11.449-.23 22.93-.66 34.422-.47 11.437-2.46 21.828-5.98 31.09-3.52 9.257-9.26 16.757-17.19 22.5-7.93 5.738-18.98 8.628-33.08 8.628-15.04 0-26.29-2.89-33.75-8.628m230.27-867.622c-26.02 8.829-49.41 23.598-70.12 44.34-20.74 20.739-37.73 47.66-50.97 80.739-13.25 33.089-19.85 74.339-19.85 123.75 0 58.242 8.36 105.242 25.16 140.98 16.76 35.742 36.83 63.551 60.23 83.402 23.36 19.84 47.62 33.278 72.78 40.348 25.15 7.07 46.52 10.582 64.18 10.582 31.79 0 60.43-6.601 86.05-19.84 25.59-13.242 47.42-31.761 65.51-55.59 18.08-23.82 31.76-51.832 41.05-84.062 9.26-32.219 13.87-66.828 13.87-103.899 0-51.179-6.84-94.179-20.51-129.07-13.67-34.84-30.66-63.082-50.93-84.68-20.32-21.652-43.01-37.07-68.17-46.332-25.15-9.257-48.79-13.91-70.82-13.91-25.62 0-51.44 4.422-77.46 13.242"/></clipPath><clipPath id="i"><path d="M1190 13.781h670v990h-670z"/></clipPath><clipPath id="j"><path d="M0 3.781h2810v1380H0z"/></clipPath><clipPath id="k"><path d="M2077.97 664.41c1.44-98.719 2.89-197.39 4.3-296.058v5.347c0 81.172 17.85 146.25 53.59 195.242 35.74 48.938 86.68 73.43 152.89 73.43 61.72 0 111.17-23.359 148.24-70.109 37.07-46.801 55.59-112.973 55.59-198.563 0-82.07-17.66-147.379-52.97-195.898-35.27-48.551-85.59-72.813-150.86-72.813-65.35 0-116.05 24.063-152.23 72.153-34.57 45.98-52.65 107.847-54.18 185.66 1.41-94.922 2.78-189.84 4.18-284.762 17.78-13.598 37.54-25.348 59.26-35.238 40.59-18.551 87.77-27.813 141.64-27.813 43.2 0 84.26 6.883 123.09 20.512 31.91 11.25 60.66 27.691 86.33 49.371-2.82 195.16-5.67 390.391-8.52 585.508-23.2 17.812-48.94 31.641-77.15 41.492-39.26 13.668-80.55 20.539-123.75 20.539-85.74 0-155.54-22.691-209.45-68"/></clipPath><clipPath id="l"><path d="M2070 13.781h430v720h-430z"/></clipPath><clipPath id="m"><path d="M2049.84 637.102c-56.95-63.551-85.39-155.743-85.39-276.641v-3.949l.12-6.403c.9-43.007 7.46-83.871 19.73-122.699 13.24-41.871 33.28-78.512 60.23-109.84 26.92-31.332 60.67-56.25 101.25-74.77 40.59-18.55 87.77-27.812 141.64-27.812 43.2 0 84.26 6.883 123.09 20.512 38.83 13.672 73.01 35.078 102.58 64.219 29.53 29.101 53.16 66.172 70.82 111.172 17.65 45 26.48 99.257 26.48 162.808 0 63.52-8.63 117.781-25.82 162.781-17.23 45-40.59 82.071-70.16 111.211-29.57 29.098-63.98 50.5-103.24 64.18-39.26 13.668-80.55 20.539-123.75 20.539-101.48 0-180.66-31.789-237.58-95.308m86.68-459.961c-36.17 48.089-54.25 113.589-54.25 196.558 0 81.172 17.85 146.25 53.59 195.242 35.74 48.938 86.68 73.43 152.89 73.43 61.72 0 111.17-23.359 148.24-70.109 37.07-46.801 55.59-112.973 55.59-198.563 0-82.07-17.66-147.379-52.97-195.898-35.27-48.551-85.59-72.813-150.86-72.813-65.35 0-116.05 24.063-152.23 72.153"/></clipPath><clipPath id="n"><path d="M1960 13.781h660v720h-660z"/></clipPath><clipPath id="o"><path d="M0 3.781h2810v1380H0z"/></clipPath><clipPath id="p"><path d="M639.691 981.199c-8.402-8.828-20.98-25.121-37.742-48.937L380.898 618.551 182.379 924.289c-16.789 25.582-29.57 43.711-38.399 54.289-8.82 10.594-21.64 15.902-38.39 15.902-18.52 0-33.09-5.539-43.68-16.558-10.582-11.051-15.89-23.633-15.89-37.731 0-6.179 1.558-13.25 4.64-21.179 3.09-7.934 6.41-15.434 9.93-22.5 3.512-7.071 7.07-13.473 10.582-19.184 3.52-5.777 6.168-9.488 7.969-11.25L310.738 525.93 39.41 143.391c-14.101-20.313-23.39-35.313-27.77-45C7.192 88.66 5 79.41 5 70.578 5 53.82 10.078 40.34 20.23 30.23c10.122-10.12 23.598-15.242 40.36-15.242 16.75 0 29.332 4.653 37.73 13.91 8.36 9.262 20.508 25.352 36.41 48.32l246.168 353.403L601.949 91.789c9.692-15.039 18.09-27.379 25.16-37.07 7.032-9.73 13.442-17.7 19.18-23.828 5.742-6.172 11.441-10.391 17.191-12.582 5.739-2.188 12.571-3.32 20.54-3.32 19.378 0 34.609 5.742 45.671 17.23 11.008 11.441 16.52 24.691 16.52 39.691 0 11.442-3.75 24.02-11.25 37.731-7.5 13.668-14.762 26.25-21.84 37.687L455.039 533.859l239.57 341.481c15.86 22.93 25.352 38.832 28.442 47.66 3.078 8.789 4.648 16.328 4.648 22.5 0 19.371-6.41 32.422-19.219 39.02-12.781 6.64-24.031 9.96-33.75 9.96-15 0-26.679-4.449-35.039-13.281"/></clipPath><clipPath id="q"><path d="M0 13.781h750v990H0z"/></clipPath><clipPath id="r"><path d="M0 3.781h2810v1380H0z"/></clipPath><clipPath id="s"><path d="M1818.98 1340.3c-49.84-49.84-48.59-131.91 2.78-183.28 51.4-51.36 133.47-52.61 183.28-2.77 49.84 49.84 48.59 131.87-2.77 183.28-26.18 26.21-60.39 39.38-94.22 39.38-32.46 0-64.65-12.19-89.07-36.61"/></clipPath><clipPath id="t"><path d="M1780 1113.78h270v270h-270z"/></clipPath><clipPath id="u"><path d="M0 3.781h2810v1380H0z"/></clipPath><clipPath id="v"><path d="M2040.27 970.852c-38.47-38.481-37.5-101.84 2.15-141.481 39.65-39.652 103.01-40.633 141.49-2.152 38.47 38.472 37.5 101.832-2.15 141.48-20.24 20.242-46.6 30.391-72.74 30.391-25.07 0-49.88-9.371-68.75-28.238"/></clipPath><clipPath id="w"><path d="M2010 793.781h210v210h-210z"/></clipPath><clipPath id="x"><path d="M0 3.781h2810v1380H0z"/></clipPath><clipPath id="y"><path d="M2548.75 1263.98c-9.49-72.04 39.49-137.9 109.34-147.15 35.66-4.69 69.84 6.25 96.05 27.65-18.83 24.53-15.43 20.12-78.83 102.78 63.4-82.66 60-78.25 78.83-102.78 25.2 20.55 43.05 50.78 47.7 86.1 9.49 72.03-39.46 137.93-109.34 147.15-5.47.7-10.94 1.05-16.33 1.05-63.32 0-118.63-48.44-127.42-114.8"/></clipPath><clipPath id="z"><path d="M2540 1113.78h270v270h-270z"/></clipPath><clipPath id="A"><path d="M0 3.781h2810v1380H0z"/></clipPath><clipPath id="B"><path d="M2477.38 1000.58c-48.86 0-91.6-37.42-98.36-88.639-7.34-55.621 30.47-106.48 84.42-113.589 27.5-3.633 53.9 4.808 74.14 21.328-14.53 18.941-11.92 15.55-60.86 79.371 48.94-63.821 46.33-60.43 60.86-79.371 19.45 15.898 33.2 39.218 36.83 66.48 7.31 55.629-30.46 106.488-84.41 113.602-4.18.538-8.32.818-12.42.818h-.2"/></clipPath><clipPath id="C"><path d="M2370 793.781h210v210h-210z"/></clipPath><clipPath id="D"><path d="M0 3.781h2810v1380H0z"/></clipPath></defs><g clip-path="url(#a)" transform="matrix(.13333 0 0 -.13333 0 185.333)"><g clip-path="url(#b)"><path d="M1009.57-496.57l-122.968-1.801c-13.321 916.68-26.68 1833.321-40 2750.001 40.976.59 81.949 1.21 122.968 1.8 13.321-916.68 26.641-1833.321 40-2750z" fill="#2b74b9"/></g></g><g clip-path="url(#c)" transform="matrix(.13333 0 0 -.13333 0 185.333)"><g clip-path="url(#d)"><path d="M1018.71-496.449c-41.909-.59-83.788-1.223-125.698-1.84-13.364 916.68-26.684 1833.359-40 2750.039 41.91.58 83.789 1.21 125.699 1.8 13.359-916.65 26.679-1833.32 39.999-2749.999z" fill="#2b74b9"/></g></g><g clip-path="url(#e)" transform="matrix(.13333 0 0 -.13333 0 185.333)"><path d="M935.391 969.602c-16.25 0-29.653-5.59-41.012-17.032-11.367-11.488-16.879-25.082-16.879-41.488 0-16.48 5.551-30.312 16.949-42.223 11.332-11.879 24.731-17.66 40.942-17.66 16.168 0 29.57 5.781 40.898 17.66 11.41 11.95 16.949 25.743 16.949 42.223 0 16.406-5.508 29.969-16.91 41.488-11.328 11.442-24.726 17.032-40.937 17.032m0-128.403c-18.832 0-35.039 6.992-48.161 20.742-13.089 13.719-19.73 30.239-19.73 49.141 0 18.906 6.641 35.238 19.77 48.52 13.16 13.277 29.332 20 48.121 20 18.75 0 34.918-6.723 48.05-20 13.161-13.282 19.799-29.614 19.799-48.52 0-18.902-6.638-35.422-19.72-49.141-13.129-13.75-29.34-20.742-48.129-20.742m1.289-113.828c-16.211 0-29.18-5.109-39.649-15.699-6.09-6.953-10.082-15.902-11.679-26.371-1.68-11.172-2.543-26.91-2.543-46.871V108.98c0-10.402.429-21.18 1.293-32.039.82-10.5 2.929-20.27 6.25-29.062 3.128-8.438 8.128-15.04 15.269-20.23 6.918-5.079 16.957-7.66 29.77-7.66 9.449 0 18.91 2.89 28.129 8.562 9.101 5.578 15.5 13.82 19.492 25.148 1.636 4.18 2.847 9.77 3.668 16.801.82 7.379 1.289 20.309 1.289 38.48v529.45c0 11.402-.239 23.711-.668 36.871-.391 12.269-2.571 21.679-6.481 27.969-4.019 6.562-9.179 12.39-15.23 17.312-5.59 4.527-15.32 6.789-28.91 6.789M935.391 9.988c-15 0-26.993 3.243-35.661 9.57-8.64 6.333-14.96 14.653-18.75 24.813-3.64 9.64-5.98 20.348-6.878 31.79a425.74 425.74 0 0 0-1.293 32.819v529.45c0 20.429.902 36.718 2.66 48.402 1.871 12.34 6.679 23 14.261 31.68 12.5 12.57 28.2 18.859 46.95 18.859 16.172 0 27.699-2.973 35.199-9.062 6.949-5.579 12.812-12.258 17.461-19.758 4.879-7.891 7.5-18.68 7.961-32.891.429-13.328.668-25.75.668-37.23V108.98c0-18.558-.469-31.878-1.367-39.609-.942-8.012-2.301-14.3-4.223-19.14-4.649-13.212-12.609-23.442-23.629-30.243-10.82-6.636-22.07-10-33.359-10" fill="#73a7c7"/></g><g clip-path="url(#f)" transform="matrix(.13333 0 0 -.13333 0 185.333)"><g clip-path="url(#g)"><path d="M1746.8-485.871l-429.07-6.25c-13.32 916.68-26.64 1833.361-40 2750.041l429.07 6.21c13.32-916.64 26.64-1833.321 40-2750.001z" fill="#2b74b9"/></g></g><g clip-path="url(#h)" transform="matrix(.13333 0 0 -.13333 0 185.333)"><g clip-path="url(#i)"><path d="M1864.57-484.148c-221.48-3.204-442.97-6.454-664.45-9.653-13.32 916.641-26.64 1833.321-40 2750.001l664.45 9.65c13.36-916.68 26.68-1833.319 40-2749.998z" fill="#2b74b9"/></g></g><g clip-path="url(#j)" transform="matrix(.13333 0 0 -.13333 0 185.333)"><path d="M1527.7 637.371c-17.11 0-38.25-3.473-62.86-10.391-24.41-6.871-48.24-20.109-70.89-39.371-22.78-19.3-42.62-46.8-58.95-81.679-16.37-34.879-24.69-81.602-24.69-138.871 0-48.547 6.57-89.528 19.49-121.868 12.93-32.351 29.73-58.953 49.85-79.07 20.08-20.109 43.05-34.609 68.24-43.16 25.35-8.59 50.86-12.973 75.82-12.973 21.37 0 44.61 4.571 69.06 13.59 24.3 8.953 46.61 24.113 66.29 45.043 19.73 21.059 36.53 49.027 49.92 83.129 13.4 34.141 20.16 76.949 20.16 127.23 0 36.399-4.57 70.891-13.71 102.532-9.02 31.449-22.54 59.148-40.2 82.386-17.53 23.122-39.02 41.364-63.82 54.184-24.77 12.809-52.93 19.289-83.71 19.289m-3.99-537.383c-26.05 0-52.66 4.571-79.06 13.524-26.64 9.019-50.9 24.328-72.07 45.539-21.1 21.058-38.6 48.828-52.07 82.429-13.4 33.508-20.2 75.782-20.2 125.579 0 58.75 8.64 106.882 25.63 143.089 16.95 36.211 37.65 64.84 61.52 85.082 23.75 20.192 48.87 34.141 74.65 41.399 25.51 7.152 47.54 10.742 65.59 10.742 32.38 0 62.1-6.871 88.32-20.391 26.13-13.511 48.71-32.73 67.18-57.031 18.4-24.219 32.46-53.051 41.84-85.699 9.37-32.5 14.1-67.93 14.1-105.27 0-51.531-6.99-95.589-20.82-130.859-13.87-35.32-31.37-64.34-51.99-86.332-20.74-22.07-44.34-38.09-70.08-47.578-25.59-9.449-50-14.223-72.54-14.223m-226.05 48.172l8.86-10.859c7.89-9.61 18.28-21.332 30.9-34.852 12.42-13.277 28.32-26.129 47.35-38.238 18.94-12.07 41.95-22.582 68.35-31.211 26.33-8.629 57.66-13.012 93.09-13.012 60.51 0 110.82 12.66 149.49 37.582 38.87 25.04 69.96 56.371 92.42 93.051 22.5 36.789 38.09 76.32 46.37 117.5 8.28 41.438 12.46 79.18 12.46 112.18 0 35.668-4.65 74.461-13.79 115.39-9.06 40.629-25.31 78.559-48.24 112.821-22.85 34.058-53.71 62.687-91.68 85.148-37.89 22.391-86.48 33.711-144.41 33.711-37.15 0-70.2-5.23-98.17-15.539-28.12-10.391-52.46-22.66-72.34-36.492-19.88-13.828-35.62-27.149-46.8-39.61-13.94-15.539-18.9-22.179-20.58-25.039l-9.3-15.461v302.61c0 11.41-.23 22.82-.66 34.219-.43 10.863-2.35 20.82-5.63 29.531-3.2 8.398-8.28 15-15.47 20.199-7.03 5.082-17.18 7.652-30.15 7.652-13.83 0-24.14-2.543-30.71-7.57-6.79-5.16-12.07-12.07-15.66-20.473-3.71-8.668-5.82-18.558-6.21-29.339a798.12 798.12 0 0 1-.67-32.887V106.32c0-19.101.67-34.73 1.96-46.449 1.17-10.742 5.19-18.98 12.26-25.23 9.89-9.922 21.72-14.653 36.37-14.653 12.85 0 22.7 2.742 29.26 8.133 6.79 5.617 11.87 12.54 15.08 20.5 3.28 8.25 5.19 16.41 5.62 24.219.39 8.238.63 15.039.63 20.238zM1546.21 9.988c-36.52 0-68.87 4.532-96.21 13.48-27.19 8.903-50.98 19.802-70.62 32.302-19.69 12.539-36.29 25.98-49.26 39.851-8.52 9.098-16.02 17.379-22.46 24.84V93.078c0-5.347-.24-12.27-.67-20.777-.47-8.871-2.61-18.09-6.29-27.39-3.82-9.532-9.88-17.77-18-24.49-8.44-6.91-20.4-10.433-35.63-10.433-17.19 0-31.72 5.864-43.24 17.34-8.63 7.703-13.87 18.332-15.35 31.453-1.33 12.07-2 28.047-2 47.539v792.852c0 10.629.2 21.719.67 33.277.47 11.992 2.81 23.09 7.03 32.891 4.3 10 10.59 18.242 18.75 24.492 8.36 6.406 20.74 9.609 36.8 9.609 15.11 0 27.22-3.203 36.01-9.531 8.71-6.289 15.08-14.648 18.95-24.762 3.71-9.726 5.82-20.75 6.29-32.699.43-11.558.66-23.078.66-34.609V628.121c3.32 3.981 7.46 8.75 12.46 14.289 11.68 13.051 28.01 26.879 48.52 41.141 20.58 14.328 45.66 26.988 74.57 37.648 29.1 10.742 63.32 16.172 101.64 16.172 59.72 0 110.04-11.789 149.49-35.07 39.3-23.25 71.21-52.93 94.92-88.25 23.64-35.231 40.35-74.332 49.69-116.172 9.3-41.641 14.02-81.168 14.02-117.578 0-33.672-4.25-72.071-12.65-114.141-8.48-42.301-24.5-82.969-47.66-120.738-23.24-38.012-55.39-70.352-95.51-96.25-40.35-25.98-92.46-39.184-154.92-39.184" fill="#73a7c7"/></g><g clip-path="url(#k)" transform="matrix(.13333 0 0 -.13333 0 185.333)"><g clip-path="url(#l)"><path d="M2505-474.809c-136.8-2-273.59-3.992-410.39-5.98-13.32 916.68-26.64 1833.319-40 2749.999 136.8 1.99 273.59 3.98 410.35 5.98 13.36-916.68 26.68-1833.319 40.04-2749.999z" fill="#2b74b9"/></g></g><g clip-path="url(#m)" transform="matrix(.13333 0 0 -.13333 0 185.333)"><g clip-path="url(#n)"><path d="M2622.77-473.102c-215.39-3.16-430.74-6.277-646.09-9.41-13.36 916.684-26.68 1833.322-40 2750.002 215.35 3.13 430.7 6.25 646.09 9.41 13.32-916.67 26.68-1833.349 40-2750.002z" fill="#2b74b9"/></g></g><g clip-path="url(#o)" transform="matrix(.13333 0 0 -.13333 0 185.333)"><path d="M2288.75 637.371c-64.22 0-114.3-24.019-148.87-71.402-34.92-47.848-52.61-112.539-52.61-192.27 0-81.48 17.93-146.597 53.24-193.551 35-46.57 84.88-70.16 148.24-70.16 63.28 0 112.7 23.832 146.84 70.742 34.49 47.43 51.99 112.348 51.99 192.969 0 84.031-18.36 149.77-54.49 195.43-35.9 45.269-84.5 68.242-144.34 68.242m0-537.383c-66.68 0-119.26 24.961-156.21 74.141-36.68 48.75-55.27 115.859-55.27 199.57 0 81.879 18.35 148.563 54.57 198.172 36.56 50.109 89.33 75.5 156.91 75.5 63.09 0 114.26-24.211 152.15-72.031 37.62-47.461 56.68-115.309 56.68-201.641 0-82.769-18.17-149.687-53.91-198.828-36.13-49.68-88.24-74.883-154.92-74.883m-1.33 627.383c-99.53 0-178.2-31.48-233.87-93.633-55.82-62.258-84.1-154.218-84.1-273.277 0-46.09 6.6-90.313 19.61-131.52 13.01-41.14 32.93-77.5 59.26-108.089 26.29-30.66 59.8-55.352 99.53-73.524 39.73-18.117 86.68-27.34 139.57-27.34 42.42 0 83.28 6.801 121.45 20.242 37.89 13.348 71.79 34.57 100.7 63.04 28.91 28.48 52.34 65.308 69.69 109.46 17.3 44.168 26.09 98.348 26.09 160.969 0 62.621-8.55 116.801-25.47 161.02-16.83 44.101-40.08 80.902-68.98 109.41-28.91 28.441-63.01 49.652-101.37 63.051-38.59 13.402-79.69 20.191-122.11 20.191m0-717.383c-54.33 0-102.69 9.532-143.71 28.243-41.09 18.75-75.74 44.378-102.97 76.097-27.22 31.641-47.81 69.184-61.21 111.602-13.32 42.191-20.08 87.461-20.08 134.531 0 121.598 29.14 215.777 86.64 279.961 57.66 64.34 138.83 96.949 241.33 96.949 43.56 0 85.74-6.949 125.39-20.781 39.81-13.86 75.16-35.86 105.12-65.352 29.92-29.488 53.95-67.5 71.29-112.968 17.34-45.348 26.13-100.739 26.13-164.571 0-63.871-8.98-119.258-26.8-164.648-17.85-45.43-42.03-83.43-71.95-112.93-30-29.492-65.12-51.48-104.41-65.312-39.22-13.829-81.21-20.82-124.77-20.82" fill="#73a7c7"/></g><g clip-path="url(#p)" transform="matrix(.13333 0 0 -.13333 0 185.333)"><g clip-path="url(#q)"><path d="M5 14.988h741.211v255.473H5zm0 255.473h741.211v65H5z" fill="#d33923"/><path d="M5 335.461h741.211v65H5z" fill="#d63e24"/><path d="M5 400.461h741.211v65H5z" fill="#de4826"/><path d="M5 465.461h741.211v65H5z" fill="#e65129"/><path d="M5 530.461h741.211v463.98H5z" fill="#e9562a"/></g></g><g clip-path="url(#r)" transform="matrix(.13333 0 0 -.13333 0 185.333)"><path d="M381.051 439.559L606.129 94.48c9.57-14.8 18.012-27.218 25-36.832 6.961-9.57 13.281-17.417 18.832-23.359 5.199-5.59 10.348-9.418 15.309-11.328 5.16-1.95 11.492-2.973 18.75-2.973 18.128 0 31.878 5.16 42.031 15.672 10.199 10.621 15.16 22.461 15.16 36.238 0 10.551-3.551 22.43-10.621 35.321-7.469 13.551-14.77 26.211-21.719 37.543L448.98 533.941l241.532 344.25c15.508 22.391 24.879 38.047 27.847 46.45 2.852 8.238 4.34 15.269 4.34 20.859 0 17.539-5.398 28.871-16.488 34.609-12.031 6.211-22.621 9.332-31.441 9.332-13.719 0-23.989-3.781-31.489-11.679-8.16-8.59-20.703-24.883-37.23-48.391l-225.313-319.73L178.16 921.59c-16.601 25.281-29.371 43.398-38 53.789-7.93 9.453-19.219 14.062-34.57 14.062-17.27 0-30.36-4.882-40.078-15-9.73-10.152-14.461-21.359-14.461-34.25 0-5.55 1.41-12.07 4.258-19.339 3.05-7.852 6.332-15.27 9.77-22.071 3.402-6.883 6.87-13.199 10.35-18.832 4.302-7.027 6.372-9.488 7.231-10.308l234.18-343.789L43.48 140.5c-13.87-19.961-23.09-34.84-27.308-44.18C12.07 87.3 10 78.66 10 70.578 10 55.031 14.488 43 23.75 33.738c9.262-9.257 21.328-13.75 36.84-13.75 15.191 0 26.68 4.14 34.02 12.274 8.242 9.097 20.351 25.187 36.011 47.808zM684.02 9.989c-8.508 0-16.008 1.21-22.301 3.632-6.449 2.5-12.848 7.148-19.098 13.828-5.82 6.25-12.391 14.422-19.57 24.34-7.11 9.723-15.629 22.262-25.321 37.262L380.781 421.672 138.828 74.328c-15.898-22.93-28.277-39.379-36.797-48.789C92.699 15.23 78.75 9.99 60.59 9.99c-18.05 0-32.82 5.632-43.91 16.683C5.62 37.73 0 52.488 0 70.578c0 9.531 2.379 19.57 7.07 29.883 4.532 10 13.79 25 28.239 45.777L304.69 525.969 75 863.27c-1.52 1.371-4.3 5.242-8.09 11.449-3.629 5.863-7.262 12.461-10.781 19.57a255.164 255.164 0 0 0-10.11 22.93c-3.32 8.402-4.968 16.172-4.968 22.972 0 15.391 5.789 29.207 17.27 41.207 11.519 11.993 27.417 18.043 47.269 18.043 18.238 0 32.461-5.929 42.219-17.652 8.91-10.707 21.921-29.098 38.711-54.73l194.531-299.61 216.801 307.699c16.796 23.864 29.648 40.543 38.199 49.532 9.301 9.8 22.347 14.761 38.719 14.761 10.429 0 22.57-3.511 36.011-10.461 14.528-7.539 21.918-22.148 21.918-43.48 0-6.719-1.648-14.84-4.929-24.141-3.282-9.418-12.809-25.39-29.059-48.871L461.09 533.781l256.211-383.633c7.109-11.636 14.539-24.418 22.078-38.128 7.851-14.372 11.832-27.891 11.832-40.122 0-16.277-6.012-30.777-17.93-43.16-11.992-12.418-28.551-18.75-49.261-18.75" fill="#d66c6c"/></g><g clip-path="url(#s)" transform="matrix(.13333 0 0 -.13333 0 185.333)"><g clip-path="url(#t)"><path d="M1912.03 1247.3v92.26c35.78 0 92.27-56.48 92.27-92.26z" fill="#ededed"/><path d="M2004.3 1247.3c0 35.78-56.49 92.26-92.27 92.26v37.34c71.56 0 129.61-58.04 129.61-129.6z" fill="#dfdfdf"/><path d="M1912.03 1247.3h-92.26c0 35.78 56.48 92.26 92.26 92.26z" fill="#ededed"/><path d="M1912.03 1339.56c-35.78 0-92.26-56.48-92.26-92.26h-37.35c0 71.56 58.01 129.6 129.61 129.6z" fill="#dfdfdf"/><path d="M1912.03 1247.3v-92.31c-35.78 0-92.26 56.49-92.26 92.31z" fill="#ededed"/><path d="M1819.77 1247.3c0-35.82 56.48-92.31 92.26-92.31v-37.3c-71.6 0-129.61 58-129.61 129.61z" fill="#dfdfdf"/><path d="M1912.03 1247.3h92.27c0-35.82-56.49-92.31-92.27-92.31z" fill="#ededed"/><path d="M1912.03 1154.99c35.78 0 92.27 56.49 92.27 92.31h37.34c0-71.61-58.05-129.61-129.61-129.61z" fill="#dfdfdf"/><path d="M2041.64 1247.3c0 71.56-58.05 129.6-129.61 129.6v53.68c101.21 0 183.28-82.07 183.28-183.28zm-129.61 129.6c-71.6 0-129.61-58.04-129.61-129.6h-53.67c0 101.21 82.03 183.28 183.28 183.28zm-129.61-129.6c0-71.61 58.01-129.61 129.61-129.61v-53.71c-101.25 0-183.28 82.07-183.28 183.32z" fill="#dbdbda"/><path d="M1912.03 1117.69c71.56 0 129.61 58 129.61 129.61h53.67c0-101.25-82.07-183.32-183.28-183.32z" fill="#dbdbda"/></g></g><g clip-path="url(#u)" transform="matrix(.13333 0 0 -.13333 0 185.333)"><path d="M1908.05 1371.87c-32.5 0-62.89-12.47-85.51-35.08-23.16-23.17-35.63-54.22-35.12-87.46.51-33.32 13.95-64.85 37.89-88.79 24.42-24.42 56.64-37.89 90.67-37.89 32.5 0 62.89 12.46 85.54 35.11 47.82 47.82 46.57 126.88-2.77 176.22-24.45 24.45-56.68 37.89-90.7 37.89m7.93-259.22c-36.72 0-71.41 14.49-97.74 40.82-25.78 25.78-40.27 59.76-40.82 95.7-.54 35.98 12.97 69.61 38.05 94.69 24.53 24.53 57.38 38.01 92.58 38.01 36.72 0 71.44-14.5 97.77-40.82 53.24-53.25 54.49-138.64 2.77-190.36-24.53-24.53-57.42-38.04-92.61-38.04" fill="#c0bfc0"/></g><g clip-path="url(#v)" transform="matrix(.13333 0 0 -.13333 0 185.333)"><g clip-path="url(#w)"><path d="M2112.07 899.051v71.211c27.66 0 71.25-43.59 71.25-71.211z" fill="#ededed"/><path d="M2183.32 899.051c0 27.621-43.59 71.211-71.25 71.211v28.867c55.27 0 100.08-44.84 100.08-100.078z" fill="#dfdfdf"/><path d="M2112.07 899.051h-71.21c0 27.621 43.59 71.211 71.21 71.211z" fill="#ededed"/><path d="M2112.07 970.262c-27.62 0-71.21-43.59-71.21-71.211h-28.83c0 55.238 44.77 100.078 100.04 100.078z" fill="#dfdfdf"/><path d="M2112.07 899.051v-71.25c-27.62 0-71.21 43.597-71.21 71.25z" fill="#ededed"/><path d="M2040.86 899.051c0-27.653 43.59-71.25 71.21-71.25V798.98c-55.27 0-100.04 44.801-100.04 100.071z" fill="#dfdfdf"/><path d="M2112.07 899.051h71.25c0-27.653-43.59-71.25-71.25-71.25z" fill="#ededed"/><path d="M2112.07 827.801c27.66 0 71.25 43.597 71.25 71.25h28.83c0-55.27-44.81-100.071-100.08-100.071z" fill="#dfdfdf"/><path d="M2212.15 899.051c0 55.238-44.81 100.078-100.08 100.078v41.451c78.16 0 141.52-63.361 141.52-141.529zm-100.08 100.078c-55.27 0-100.04-44.84-100.04-100.078h-41.48c0 78.168 63.36 141.529 141.52 141.529zm-100.04-100.078c0-55.27 44.77-100.071 100.04-100.071v-41.449c-78.16 0-141.52 63.36-141.52 141.52z" fill="#dbdbda"/><path d="M2112.07 798.98c55.27 0 100.08 44.801 100.08 100.071h41.44c0-78.16-63.36-141.52-141.52-141.52z" fill="#dbdbda"/></g></g><g clip-path="url(#x)" transform="matrix(.13333 0 0 -.13333 0 185.333)"><path d="M2109.02 994.09c-24.8 0-47.97-9.488-65.23-26.758-36.45-36.441-35.47-96.75 2.15-134.41 18.67-18.672 43.24-28.942 69.18-28.942 24.8 0 47.97 9.532 65.27 26.79 36.45 36.449 35.47 96.761-2.15 134.421-18.67 18.629-43.24 28.899-69.22 28.899m6.1-200.11c-28.64 0-55.71 11.321-76.25 31.872-41.57 41.519-42.5 108.199-2.15 148.546 19.18 19.153 44.84 29.692 72.3 29.692 28.64 0 55.71-11.289 76.29-31.828 41.53-41.571 42.5-108.211 2.15-148.563-19.18-19.179-44.88-29.719-72.34-29.719" fill="#c0bfc0"/></g><g clip-path="url(#y)" transform="matrix(.13333 0 0 -.13333 0 185.333)"><g clip-path="url(#z)"><path d="M2675.31 1247.26c41.37 31.72 60.94 46.72 73.21 56.17 21.79-28.4 11.36-107.58-17.04-129.38-9.45 12.31-24.45 31.88-56.17 73.21z" fill="#ededed"/><path d="M2731.48 1174.05c28.4 21.8 38.83 100.98 17.04 129.38 12.3 9.41 17.34 13.28 29.64 22.69 43.56-56.79 32.82-138.12-23.98-181.68-9.41 12.27-13.28 17.31-22.7 29.61z" fill="#dfdfdf"/><path d="M2675.31 1247.26c-31.72 41.36-46.72 60.93-56.17 73.24 28.44 21.76 107.62 11.33 129.38-17.07-12.27-9.45-31.84-24.45-73.21-56.17z" fill="#ededed"/><path d="M2748.52 1303.43c-21.76 28.4-100.94 38.83-129.38 17.07-9.41 12.26-13.28 17.3-22.69 29.61 56.79 43.55 138.16 32.81 181.71-23.99-12.3-9.41-17.34-13.28-29.64-22.69z" fill="#dfdfdf"/><path d="M2675.31 1247.26c-41.36-31.72-60.9-46.72-73.2-56.14-21.8 28.4-11.37 107.58 17.03 129.38 9.45-12.31 24.45-31.88 56.17-73.24z" fill="#ededed"/><path d="M2619.14 1320.5c-28.4-21.8-38.83-100.98-17.03-129.38-12.31-9.45-17.34-13.28-29.65-22.73-43.55 56.8-32.81 138.16 23.99 181.72 9.41-12.31 13.28-17.35 22.69-29.61z" fill="#dfdfdf"/><path d="M2675.31 1247.26c31.72-41.33 46.72-60.9 56.17-73.21-28.39-21.79-107.61-11.32-129.37 17.07 12.3 9.42 31.84 24.42 73.2 56.14z" fill="#ededed"/><path d="M2602.11 1191.12c21.76-28.39 100.98-38.86 129.37-17.07 9.42-12.3 13.29-17.34 22.7-29.61-56.8-43.59-138.13-32.85-181.72 23.95 12.31 9.45 17.34 13.28 29.65 22.73z" fill="#dfdfdf"/><path d="M2754.18 1144.44c56.8 43.56 67.54 124.89 23.98 181.68 14.18 10.9 28.4 21.8 42.58 32.7 61.6-80.31 46.45-195.39-33.86-256.99z" fill="#dbdbda"/><path d="M2778.16 1326.12c-43.55 56.8-124.92 67.54-181.71 23.99l-32.66 42.62c80.31 61.6 195.35 46.4 256.95-33.91-14.18-10.9-28.4-21.8-42.58-32.7z" fill="#dbdbda"/><path d="M2596.45 1350.11c-56.8-43.56-67.54-124.92-23.99-181.72l-42.58-32.66c-61.6 80.32-46.44 195.39 33.91 257z" fill="#dbdbda"/><path d="M2572.46 1168.39c43.59-56.8 124.92-67.54 181.72-23.95l32.7-42.61c-80.36-61.6-195.4-46.41-257 33.9z" fill="#dbdbda"/></g></g><g clip-path="url(#A)" transform="matrix(.13333 0 0 -.13333 0 185.333)"><path d="M2676.17 1373.78c-61.48 0-114.14-47.5-122.42-110.47-9.14-69.18 37.97-132.65 105-141.52 5.2-.71 10.51-1.02 15.7-1.02 61.49 0 114.1 47.46 122.43 110.47 9.14 69.18-37.97 132.7-105 141.49-5.2.7-10.51 1.05-15.71 1.05m-1.72-263.01c-5.62 0-11.36.35-16.99 1.1-72.5 9.61-123.51 78.08-113.63 152.73 8.94 67.97 65.86 119.18 132.34 119.18 5.63 0 11.37-.35 16.99-1.09 72.5-9.57 123.48-78.09 113.64-152.78-8.99-67.93-65.86-119.14-132.35-119.14" fill="#c0bfc0"/></g><g clip-path="url(#B)" transform="matrix(.13333 0 0 -.13333 0 185.333)"><g clip-path="url(#C)"><path d="M2476.72 899.051c31.91 24.5 47.03 36.097 56.52 43.359 16.84-21.91 8.75-83.078-13.16-99.922-7.31 9.532-18.87 24.614-43.36 56.563z" fill="#ededed"/><path d="M2520.08 842.488c21.91 16.844 30 78.012 13.16 99.922 9.49 7.27 13.4 10.281 22.89 17.539 33.64-43.867 25.35-106.679-18.51-140.308a6972.876 6972.876 0 0 0-17.54 22.847z" fill="#dfdfdf"/><path d="M2476.72 899.051c-24.49 31.961-36.1 47.031-43.36 56.531 21.91 16.828 83.09 8.75 99.88-13.172-9.49-7.262-24.61-18.859-56.52-43.359z" fill="#ededed"/><path d="M2533.24 942.41c-16.79 21.922-77.97 30-99.88 13.172-7.27 9.488-10.27 13.398-17.54 22.887 43.87 33.631 106.68 25.351 140.31-18.52-9.49-7.258-13.4-10.269-22.89-17.539z" fill="#dfdfdf"/><path d="M2476.72 899.051c-31.95-24.492-47.03-36.09-56.52-43.36-16.84 21.918-8.75 83.09 13.16 99.891 7.26-9.5 18.87-24.57 43.36-56.531z" fill="#ededed"/><path d="M2433.36 955.582c-21.91-16.801-30-77.973-13.16-99.891-9.5-7.261-13.4-10.269-22.9-17.531-33.63 43.82-25.35 106.672 18.52 140.309 7.27-9.489 10.27-13.399 17.54-22.887z" fill="#dfdfdf"/><path d="M2476.72 899.051c24.49-31.949 36.05-47.031 43.36-56.563-21.92-16.797-83.09-8.75-99.88 13.203 9.49 7.27 24.57 18.868 56.52 43.36z" fill="#ededed"/><path d="M2420.2 855.691c16.79-21.953 77.96-30 99.88-13.203 7.26-9.488 10.23-13.359 17.54-22.847-43.87-33.629-106.68-25.352-140.32 18.519 9.5 7.262 13.4 10.27 22.9 17.531z" fill="#dfdfdf"/><path d="M2537.62 819.641c43.86 33.629 52.15 96.441 18.51 140.308 10.94 8.403 21.92 16.801 32.89 25.242 47.54-62.031 35.82-150.859-26.17-198.441-8.44 10.98-16.83 21.91-25.23 32.891z" fill="#dbdbda"/><path d="M2556.13 959.949c-33.63 43.871-96.44 52.151-140.31 18.52-8.4 10.929-16.8 21.911-25.23 32.891 62.03 47.54 150.86 35.82 198.43-26.169-10.97-8.441-21.95-16.839-32.89-25.242z" fill="#dbdbda"/><path d="M2415.82 978.469c-43.87-33.637-52.15-96.489-18.52-140.309-10.93-8.398-21.91-16.84-32.89-25.238-47.53 62.027-35.82 150.859 26.18 198.438 8.43-10.98 16.83-21.962 25.23-32.891z" fill="#dbdbda"/><path d="M2397.3 838.16c33.64-43.871 96.45-52.148 140.32-18.519 8.4-10.981 16.79-21.911 25.23-32.891-62.03-47.539-150.86-35.82-198.44 26.172 10.98 8.398 21.96 16.84 32.89 25.238z" fill="#dbdbda"/></g></g><g clip-path="url(#D)" transform="matrix(.13333 0 0 -.13333 0 185.333)"><path d="M2477.38 995.582c-46.91 0-87.07-36.25-93.4-84.301-6.95-52.769 28.99-101.211 80.12-107.972 3.95-.508 7.97-.778 11.95-.778 46.92 0 87.04 36.207 93.36 84.301 3.4 25.578-3.08 50.93-18.24 71.328-15.15 20.391-37.07 33.391-61.83 36.641-3.95.5-8.01.781-11.96.781m-1.33-203.051c-4.41 0-8.86.27-13.28.86-56.6 7.461-96.4 60.941-88.71 119.179 6.99 53.051 51.41 93.01 103.32 93.01 4.42 0 8.87-.28 13.28-.86 27.43-3.64 51.76-18.048 68.52-40.591 16.72-22.5 23.87-50.43 20.16-78.629-7-53.012-51.37-92.969-103.29-92.969" fill="#c0bfc0"/></g></svg>